<?xml version="1.0" standalone="no"?>
<!DOCTYPE svg PUBLIC "-//W3C//DTD SVG 20010904//EN"
 "http://www.w3.org/TR/2001/REC-SVG-20010904/DTD/svg10.dtd">
<svg version="1.0" xmlns="http://www.w3.org/2000/svg"
 width="2048.000000pt" height="1900.000000pt" viewBox="0 0 2048.000000 1900.000000"
 preserveAspectRatio="xMidYMid meet">

<g transform="translate(0.000000,1900.000000) scale(0.100000,-0.100000)"
fill="#000000" stroke="none">
<path d="M3814 14017 c-22 -24 -70 -81 -109 -127 -38 -46 -88 -104 -110 -129
-23 -25 -49 -58 -58 -73 l-17 -27 88 -89 c209 -211 333 -444 382 -722 6 -36
16 -87 21 -113 18 -93 3 -359 -26 -457 -3 -8 -7 -33 -11 -54 -7 -46 -52 -172
-90 -252 -53 -113 -166 -267 -273 -374 -212 -212 -434 -335 -686 -381 -38 -7
-73 -12 -77 -11 -4 1 -29 -3 -55 -8 -87 -18 -176 -18 -318 0 -226 29 -357 70
-514 159 -87 49 -137 86 -209 155 l-54 51 -35 -40 c-19 -22 -50 -62 -69 -90
-19 -27 -64 -84 -99 -125 -35 -41 -77 -94 -94 -117 l-31 -41 71 -66 c49 -45
75 -63 87 -59 15 6 68 42 152 103 122 90 159 112 179 105 40 -12 51 -39 72
-180 5 -38 14 -95 20 -126 5 -30 9 -69 9 -86 0 -63 13 -78 104 -116 48 -20 93
-34 102 -30 15 6 82 94 212 278 46 65 58 76 80 73 22 -3 30 -15 59 -88 70
-178 107 -263 121 -276 17 -17 98 -18 193 -3 79 14 66 -10 119 209 43 181 45
187 87 201 32 10 37 9 66 -17 16 -16 44 -45 61 -64 89 -101 182 -190 199 -190
20 0 171 73 207 100 21 16 22 20 11 86 -16 97 -41 279 -41 297 0 25 60 87 84
87 17 0 278 -113 350 -152 16 -8 27 -1 75 53 94 106 112 134 96 155 -24 35
-122 208 -155 276 l-33 66 20 34 19 33 195 -4 c216 -4 219 -3 238 62 5 18 21
66 36 107 l27 75 -39 33 c-21 18 -49 41 -63 50 -39 26 -205 159 -219 176 -10
12 -10 23 -2 49 13 38 42 54 254 137 62 24 111 49 117 60 11 21 12 118 2 195
l-7 50 -55 16 c-30 9 -113 29 -185 44 -71 16 -137 32 -146 36 -9 5 -19 23 -22
41 -6 41 17 73 165 224 59 61 108 117 108 125 1 8 -21 58 -47 111 l-48 98 -51
0 c-28 0 -75 -4 -105 -10 -30 -5 -74 -12 -99 -14 -25 -3 -67 -10 -95 -15 -49
-10 -51 -10 -77 21 -16 18 -28 35 -28 38 0 3 34 88 75 190 l74 185 -62 63
c-34 34 -67 62 -73 62 -6 0 -29 -19 -50 -43z"/>
<path d="M4924 11700 c-24 -9 -32 -28 -95 -220 -23 -69 -48 -132 -58 -142 -9
-9 -31 -19 -49 -23 -36 -7 -45 0 -147 120 -80 94 -157 175 -166 175 -5 0 -56
-24 -115 -52 l-107 -53 7 -83 c3 -47 9 -137 12 -201 l7 -116 -33 -24 c-30 -22
-36 -23 -68 -11 -19 7 -98 48 -174 92 -87 49 -146 77 -157 73 -27 -8 -181
-170 -181 -189 0 -10 38 -91 84 -182 82 -159 84 -165 70 -193 -25 -51 -31 -52
-155 -41 -63 5 -153 10 -200 10 l-87 0 -27 -67 c-16 -38 -36 -88 -47 -112 -10
-24 -18 -47 -18 -52 0 -4 65 -65 144 -134 80 -70 147 -133 150 -140 3 -8 1
-28 -5 -44 -12 -34 -50 -52 -209 -101 -58 -18 -122 -41 -142 -51 l-38 -19 0
-124 0 -124 28 -11 c15 -6 88 -31 163 -55 185 -59 199 -67 199 -116 0 -19 -36
-60 -145 -170 l-145 -145 19 -55 c11 -30 31 -82 46 -114 l26 -59 82 7 c253 20
296 20 318 0 45 -40 44 -44 -46 -227 -47 -95 -85 -177 -85 -181 0 -17 112
-136 128 -136 18 0 362 353 362 371 0 7 -26 39 -57 73 -153 164 -302 449 -334
641 -35 203 -40 281 -29 385 38 354 128 571 341 825 78 94 84 100 213 200 244
189 492 275 816 281 80 1 166 -2 190 -7 25 -4 74 -13 110 -19 87 -15 250 -70
337 -114 130 -65 204 -118 315 -224 l77 -74 178 182 c98 100 179 185 181 189
1 3 -25 33 -58 66 l-60 59 -164 -82 c-177 -89 -186 -91 -241 -47 l-29 24 12
138 c7 76 12 160 12 186 l0 48 -82 38 c-46 20 -98 43 -117 51 -38 15 -15 35
-214 -183 -72 -79 -94 -97 -117 -97 -50 0 -67 27 -120 190 -28 85 -58 165 -66
178 -13 20 -21 22 -117 21 -56 0 -112 -4 -123 -9z"/>
<path d="M1075 10968 c-109 -26 -166 -42 -170 -47 -2 -4 -6 -36 -9 -71 -6 -62
-15 -120 -37 -240 -16 -85 -17 -86 -61 -104 -41 -16 -43 -15 -67 7 -209 189
-252 227 -263 227 -14 0 -132 -76 -149 -96 -10 -12 6 -41 88 -162 55 -81 116
-175 137 -209 43 -72 49 -78 68 -60 15 14 122 83 188 120 102 58 301 112 470
128 354 33 734 -74 983 -278 265 -217 479 -571 522 -863 4 -25 11 -67 16 -94
12 -63 12 -207 0 -277 -6 -30 -13 -76 -16 -103 -3 -27 -8 -53 -11 -57 -2 -4
-9 -34 -15 -66 -14 -76 -60 -208 -100 -286 -92 -182 -291 -406 -441 -499 -28
-18 -48 -37 -48 -48 0 -9 28 -57 63 -106 34 -49 93 -137 130 -196 38 -59 74
-112 82 -118 14 -11 34 0 118 64 38 29 45 54 28 98 -13 33 -51 163 -57 192 -2
14 -9 37 -14 51 -17 46 -12 90 14 114 l24 22 174 -45 c96 -25 186 -46 200 -46
21 0 36 16 87 93 33 51 61 100 61 108 0 9 -15 33 -33 55 -106 128 -197 262
-197 290 0 10 5 32 12 50 l11 32 106 6 c167 9 284 24 292 37 12 19 51 219 46
233 -3 7 -56 41 -118 76 -184 103 -195 109 -213 129 -15 17 -26 76 -15 85 6 5
244 147 302 180 26 15 47 33 47 42 0 14 -36 191 -46 225 -3 12 -29 19 -107 28
-105 13 -218 28 -275 37 -25 4 -35 12 -47 40 -18 44 -9 66 78 174 117 145 133
165 141 177 4 7 -3 30 -14 53 -31 60 -110 180 -119 180 -4 0 -34 -8 -67 -19
-32 -10 -97 -28 -144 -41 -47 -12 -101 -28 -120 -35 -19 -7 -39 -13 -45 -13
-13 -1 -42 26 -65 58 -18 25 -18 28 12 130 16 58 39 141 51 184 l20 80 -39 34
c-21 18 -65 51 -98 73 -58 39 -59 39 -86 22 -16 -10 -41 -29 -57 -43 -15 -14
-75 -61 -132 -104 l-103 -78 -39 11 c-48 15 -58 32 -69 129 -5 43 -11 89 -14
103 -3 13 -8 47 -11 74 -11 105 -15 110 -113 130 -48 10 -104 19 -126 19 l-38
1 -72 -135 c-109 -205 -112 -210 -161 -210 -16 0 -34 4 -40 8 -19 14 -52 68
-120 197 -37 72 -72 136 -78 143 -11 14 -35 14 -92 0z"/>
<path d="M17940 10130 c-303 -4 -390 -8 -410 -19 -50 -29 -110 -125 -90 -145
18 -18 834 -8 880 10 60 25 110 86 110 132 0 24 -20 33 -68 30 -20 -1 -210 -5
-422 -8z"/>
<path d="M9008 9670 c-33 -26 -50 -68 -46 -116 l3 -39 357 -5 c274 -4 360 -8
370 -18 10 -10 14 -112 18 -460 l5 -447 190 0 190 0 5 446 c4 358 8 449 19
462 12 15 50 17 367 17 l354 0 12 25 c14 30 -1 88 -33 129 l-20 26 -883 0
c-863 0 -884 0 -908 -20z"/>
<path d="M11673 9676 c-97 -31 -153 -87 -184 -185 -16 -54 -18 -99 -19 -477 0
-298 3 -420 11 -430 9 -11 52 -14 199 -14 104 0 195 3 204 6 14 5 16 34 16
223 0 155 3 220 12 229 9 9 99 12 343 12 210 0 344 4 370 11 22 6 56 28 78 50
33 33 38 43 35 76 l-3 38 -409 3 c-313 2 -412 5 -418 15 -4 6 -8 55 -8 107 0
77 4 101 20 128 11 17 21 33 22 34 2 1 206 5 454 8 509 6 477 0 515 85 18 41
20 60 6 83 -12 18 -1184 16 -1244 -2z"/>
<path d="M15594 9669 c-67 -21 -138 -76 -174 -134 -35 -56 -53 -150 -40 -209
39 -183 156 -262 430 -291 30 -3 62 -8 70 -10 8 -2 51 -9 95 -15 312 -40 382
-56 414 -93 21 -26 24 -81 6 -116 -30 -60 -41 -61 -492 -61 -456 0 -440 2
-497 -73 -31 -40 -33 -72 -7 -87 28 -15 1132 -14 1203 1 100 21 162 69 211
164 29 55 31 68 31 155 -1 147 -43 223 -154 280 -60 30 -168 60 -217 60 -17 0
-53 4 -80 9 -70 14 -172 30 -220 35 -40 5 -110 16 -223 37 -30 6 -67 15 -82
21 -66 25 -75 112 -15 148 30 19 53 20 427 20 368 0 399 1 449 20 67 24 88 43
103 93 21 70 47 67 -601 66 -536 -1 -580 -2 -637 -20z"/>
<path d="M18724 9670 c-74 -24 -121 -55 -150 -98 -39 -57 -46 -142 -42 -487 3
-284 6 -325 22 -365 26 -62 91 -115 172 -140 62 -19 92 -20 485 -20 394 0 423
1 477 20 78 27 132 68 162 120 l25 45 3 361 c3 346 2 363 -18 417 -27 73 -82
121 -168 147 -60 19 -93 20 -486 19 -387 0 -426 -2 -482 -19z m722 -181 c18
-20 19 -41 19 -366 l0 -345 -24 -19 c-21 -17 -41 -19 -237 -19 -201 0 -215 1
-234 20 -19 19 -20 33 -20 353 0 313 1 334 20 365 l20 32 218 0 c210 0 220 -1
238 -21z"/>
<path d="M10962 9668 c-16 -16 -18 -1059 -2 -1089 10 -18 23 -19 205 -19 194
0 195 0 200 23 3 12 4 263 3 557 l-3 535 -195 3 c-144 2 -199 -1 -208 -10z"/>
<path d="M13032 9624 l3 -56 70 -24 c39 -14 91 -31 116 -39 77 -25 74 -45 -26
-145 -47 -47 -85 -93 -85 -102 0 -9 9 -37 20 -62 l19 -46 130 0 c169 0 169 0
101 -135 -28 -54 -50 -106 -50 -114 0 -9 23 -39 50 -66 l51 -50 62 35 c153 85
154 85 171 71 13 -11 16 -36 16 -141 l0 -128 63 -25 62 -25 24 21 c13 12 50
55 83 95 58 70 87 87 105 60 4 -7 26 -62 49 -123 l41 -110 73 2 c76 2 85 7 96
53 3 14 15 56 26 94 18 60 25 70 54 82 18 8 35 14 38 14 2 0 30 -33 62 -72 33
-40 68 -82 79 -94 l20 -21 63 31 64 31 -7 122 -7 121 25 17 c31 20 40 18 141
-40 44 -25 87 -45 96 -45 20 0 100 81 100 102 0 8 -20 56 -45 106 -49 99 -51
108 -30 136 14 18 20 19 126 7 62 -6 115 -8 119 -4 4 4 20 36 35 71 l28 63
-86 87 c-54 55 -87 95 -87 108 0 24 8 28 143 69 l87 27 0 49 0 49 -178 0 -178
0 -13 -113 c-15 -137 -37 -212 -93 -314 -45 -83 -154 -206 -226 -255 -135 -93
-282 -138 -450 -138 -232 0 -396 67 -562 230 -72 71 -94 101 -137 185 -55 109
-74 171 -94 313 l-13 92 -173 0 -174 0 3 -56z"/>
<path d="M17170 9673 c-46 -8 -128 -44 -148 -66 -12 -12 -31 -45 -44 -72 -23
-49 -23 -55 -26 -489 -2 -242 -1 -450 3 -463 l5 -23 196 0 c146 0 196 3 199
13 3 6 6 201 8 432 2 371 4 424 19 451 28 50 48 54 301 54 212 0 235 -2 264
-20 39 -24 53 -67 53 -171 0 -55 -4 -80 -15 -89 -10 -8 -59 -12 -162 -11 -232
2 -281 -13 -337 -102 -47 -77 -46 -77 245 -77 187 0 250 -3 256 -12 4 -7 10
-114 13 -238 l5 -225 200 0 200 0 3 450 c2 400 1 455 -14 494 -23 61 -74 114
-137 142 l-52 24 -505 1 c-278 1 -516 0 -530 -3z"/>
<path d="M4515 9665 c-5 -2 -35 -11 -66 -19 -37 -10 -72 -30 -102 -56 -74 -65
-77 -85 -77 -474 0 -207 4 -346 11 -371 7 -27 28 -56 64 -91 89 -85 85 -84
686 -84 480 0 517 2 555 19 31 14 47 30 63 63 11 24 21 54 21 66 l0 22 -442 0
c-413 0 -446 2 -485 19 -34 16 -44 27 -52 58 -17 59 -14 565 2 606 27 64 6 62
506 67 446 5 456 5 459 25 5 40 -40 109 -88 133 -44 22 -45 22 -545 21 -275 0
-504 -2 -510 -4z"/>
<path d="M5720 9618 l0 -53 125 -44 c157 -54 157 -55 38 -173 l-86 -87 24 -62
24 -62 128 7 127 6 12 -25 c10 -21 4 -38 -43 -130 l-53 -106 56 -56 56 -56
107 62 c102 59 108 61 126 45 17 -15 19 -33 19 -144 l0 -127 60 -25 59 -26 23
22 c13 12 50 54 82 94 49 61 63 73 85 70 23 -3 30 -15 68 -118 23 -63 43 -119
45 -124 2 -5 37 -6 80 -2 l75 7 18 67 c22 85 45 151 57 158 4 3 19 7 32 10 24
4 60 -29 148 -138 l38 -46 55 29 c30 17 57 35 61 40 3 5 5 63 5 129 l-1 120
26 12 c24 11 37 7 130 -42 l103 -55 42 40 c66 64 65 63 9 176 -49 97 -50 102
-35 125 16 24 17 24 133 18 l117 -7 32 66 32 65 -90 90 c-121 122 -121 125 34
172 l107 33 0 49 0 48 -180 0 -180 0 0 -67 c0 -78 -30 -222 -59 -288 -59 -134
-178 -271 -304 -349 -124 -78 -221 -106 -382 -112 -153 -5 -293 24 -399 83
-83 46 -202 145 -257 215 -87 111 -169 336 -169 467 l0 51 -180 0 -180 0 0
-52z"/>
<path d="M8168 9233 c-3 -512 -2 -522 70 -596 36 -37 61 -52 111 -67 59 -19
94 -20 570 -20 307 0 520 4 542 10 20 6 45 18 56 28 28 24 55 79 51 105 l-3
22 -455 2 c-477 3 -488 4 -513 48 -9 14 -13 150 -17 460 l-5 440 -202 3 -203
2 -2 -437z"/>
<path d="M6430 8119 c-25 -16 -46 -34 -48 -39 -9 -24 32 -19 83 10 45 26 54
35 44 46 -16 19 -27 17 -79 -17z"/>
<path d="M12148 8121 l-32 -28 23 -8 c17 -5 26 -3 33 9 10 18 58 22 75 5 24
-24 123 0 123 30 0 18 -33 21 -45 4 -12 -16 -16 -16 -67 0 -71 22 -72 22 -110
-12z"/>
<path d="M5605 7912 c-32 -81 -66 -166 -76 -189 -25 -57 -25 -74 4 -70 17 3
27 17 42 61 l20 57 69 -3 70 -3 21 -54 c13 -35 27 -55 38 -57 26 -4 31 19 13
58 -8 18 -43 103 -77 188 -34 85 -62 156 -63 157 -2 2 -29 -64 -61 -145z m115
-104 c0 -4 -25 -8 -55 -8 -30 0 -55 3 -55 6 0 4 12 37 27 75 l27 68 28 -66
c15 -37 28 -71 28 -75z"/>
<path d="M8283 7861 c-79 -195 -80 -199 -58 -204 19 -3 26 3 39 32 8 20 18 46
21 59 6 21 11 23 78 20 l72 -3 19 -52 c15 -44 23 -53 42 -53 13 0 24 2 24 5 0
5 -37 102 -50 130 -5 11 -30 74 -56 140 -26 66 -48 121 -49 123 -1 1 -38 -87
-82 -197z m137 -58 c0 -2 -25 -3 -55 -3 -30 0 -55 3 -55 7 0 4 12 38 27 76
l27 69 28 -74 c15 -40 28 -74 28 -75z"/>
<path d="M12171 7883 c-93 -227 -89 -213 -58 -213 22 0 29 8 45 53 l20 52 73
0 72 0 16 -50 c14 -42 20 -50 44 -53 15 -2 27 -1 27 1 0 2 -24 62 -54 133 -29
71 -64 157 -77 191 -13 35 -27 63 -30 63 -3 0 -38 -80 -78 -177z m107 5 c12
-35 22 -66 22 -69 0 -3 -24 -6 -52 -5 -30 1 -52 5 -51 11 7 29 46 125 52 125
3 0 16 -28 29 -62z"/>
<path d="M11060 8043 c-59 -19 -92 -65 -105 -150 -9 -58 11 -147 41 -183 63
-74 204 -57 229 28 5 19 3 22 -19 22 -15 0 -26 -6 -26 -13 0 -45 -102 -65
-139 -28 -38 38 -52 138 -29 213 13 43 58 88 88 88 30 0 69 -21 75 -42 4 -11
16 -18 31 -18 24 0 24 1 9 30 -25 48 -96 73 -155 53z"/>
<path d="M11793 8036 c-51 -23 -69 -80 -39 -121 8 -11 54 -40 102 -65 83 -42
89 -47 92 -78 5 -51 -20 -72 -83 -72 -38 0 -60 6 -79 21 -25 20 -56 20 -56 0
0 -14 45 -40 93 -53 35 -9 54 -9 90 1 56 16 76 37 84 85 7 47 -17 75 -107 122
-36 18 -73 40 -82 47 -25 20 -23 63 4 81 30 22 66 20 112 -5 34 -18 40 -19 54
-6 13 13 11 17 -18 32 -45 23 -128 29 -167 11z"/>
<path d="M12568 8035 c-72 -41 -98 -200 -48 -300 21 -42 32 -52 68 -64 88 -27
161 13 182 100 24 97 -3 227 -51 257 -34 21 -119 25 -151 7z m128 -46 c28 -29
29 -33 29 -129 0 -84 -3 -103 -21 -127 -22 -29 -58 -39 -101 -28 -74 18 -86
240 -16 295 37 29 74 26 109 -11z"/>
<path d="M7151 8022 c-55 -27 -76 -80 -76 -187 1 -67 5 -99 18 -123 30 -56
119 -79 181 -47 35 18 36 18 36 0 0 -8 9 -15 20 -15 19 0 20 7 20 95 l0 95
-81 0 c-60 0 -80 -3 -77 -12 3 -8 28 -15 58 -18 43 -4 54 -9 56 -25 4 -30 -24
-81 -52 -94 -80 -36 -131 16 -133 139 -3 119 27 170 100 170 36 0 41 -3 55
-35 17 -41 54 -50 54 -12 -1 29 -18 50 -57 70 -40 21 -78 21 -122 -1z"/>
<path d="M7925 8021 c-58 -26 -80 -79 -79 -192 0 -95 18 -135 74 -164 62 -32
157 -9 184 44 20 39 20 39 -9 39 -14 0 -25 -6 -25 -14 0 -19 -49 -54 -76 -54
-74 0 -104 51 -101 174 2 79 4 87 31 115 23 24 38 31 67 31 35 0 69 -20 69
-41 0 -5 11 -9 25 -9 14 0 25 3 25 8 0 19 -35 55 -66 68 -44 18 -71 17 -119
-5z"/>
<path d="M8840 7850 l0 -190 66 0 c80 0 136 15 164 45 28 29 45 117 36 186
-14 111 -63 149 -190 149 l-76 0 0 -190z m177 135 c51 -36 59 -214 11 -264
-15 -17 -31 -21 -78 -21 l-60 0 0 150 0 150 53 0 c31 0 61 -6 74 -15z"/>
<path d="M9250 7850 l0 -190 120 0 c113 0 120 1 120 20 0 19 -7 20 -95 20
l-95 0 0 70 0 70 68 0 c54 0 69 3 69 15 0 12 -15 15 -69 15 l-68 0 0 65 0 65
95 0 c88 0 95 1 95 20 0 19 -7 20 -120 20 l-120 0 0 -190z"/>
<path d="M9820 7855 l0 -185 25 0 c23 0 24 3 27 71 l3 71 40 4 c80 6 104 15
129 45 19 22 26 42 26 70 0 84 -38 109 -165 109 l-85 0 0 -185z m178 130 c29
-24 33 -45 18 -92 -9 -27 -47 -43 -101 -43 l-45 0 0 80 0 80 49 0 c38 0 56 -6
79 -25z"/>
<path d="M10210 7855 l0 -185 25 0 c24 0 25 2 25 75 l0 75 38 0 c34 0 41 -6
92 -75 46 -62 60 -75 84 -75 21 0 26 3 19 13 -6 6 -33 43 -62 81 l-52 69 30
18 c52 32 66 86 34 139 -23 40 -52 50 -148 50 l-85 0 0 -185z m178 139 c16
-11 22 -25 22 -54 0 -56 -29 -80 -97 -80 l-53 0 0 75 0 75 53 0 c31 0 61 -6
75 -16z"/>
<path d="M10600 7855 l0 -185 120 0 c100 0 120 3 120 15 0 12 -17 15 -95 15
l-95 0 0 70 0 70 70 0 c63 0 70 2 70 20 0 18 -7 20 -70 20 l-70 0 0 65 0 65
95 0 c78 0 95 3 95 15 0 13 -20 15 -120 15 l-120 0 0 -185z"/>
<path d="M11390 8025 c0 -10 10 -15 30 -15 l30 0 0 -155 0 -155 -30 0 c-20 0
-30 -5 -30 -15 0 -13 14 -15 87 -13 55 2 88 7 90 15 3 7 -9 13 -29 15 l-33 3
-3 152 -3 152 32 3 c18 2 34 9 37 16 3 9 -19 12 -87 12 -74 0 -91 -3 -91 -15z"/>
<path d="M4360 7845 l0 -185 25 0 24 0 3 138 3 137 46 -89 c52 -101 44 -103
110 24 l34 65 3 -136 c2 -127 4 -137 22 -142 11 -3 22 -2 25 3 3 4 4 89 3 189
l-2 181 -23 0 c-25 0 -38 -17 -88 -119 -16 -33 -32 -61 -35 -61 -3 0 -27 41
-53 90 -41 75 -52 90 -73 90 l-24 0 0 -185z"/>
<path d="M4790 7845 l0 -185 120 0 c100 0 120 3 120 15 0 12 -17 15 -95 15
l-95 0 0 70 0 70 65 0 c51 0 65 3 65 15 0 12 -14 15 -65 15 l-65 0 0 69 0 70
83 0 c109 -1 107 -1 107 16 0 13 -20 15 -120 15 l-120 0 0 -185z"/>
<path d="M5120 8015 c0 -12 14 -15 65 -15 l65 0 0 -170 0 -170 25 0 25 0 0
170 0 169 43 -1 c70 -2 87 1 87 17 0 13 -24 15 -155 15 -131 0 -155 -2 -155
-15z"/>
<path d="M5950 7845 l0 -185 125 0 c104 0 125 2 125 15 0 12 -18 15 -100 15
l-100 0 0 170 0 170 -25 0 -25 0 0 -185z"/>
<path d="M6310 7875 l0 -155 29 -32 c26 -30 35 -33 90 -35 56 -2 65 1 96 29
l35 30 0 159 0 159 -24 0 -24 0 -1 -157 c-1 -148 -2 -159 -22 -175 -28 -23
-78 -22 -109 2 -25 19 -25 20 -25 174 0 155 0 156 -22 156 -23 0 -23 -1 -23
-155z"/>
<path d="M6710 7846 c0 -173 1 -184 19 -189 11 -3 22 -2 25 1 3 3 6 38 6 79
l0 73 34 0 c30 0 39 -8 90 -75 31 -41 60 -75 64 -76 4 0 15 -2 25 -4 28 -5 20
13 -39 88 l-55 72 35 28 c44 35 55 81 31 127 -22 43 -68 60 -160 60 l-75 0 0
-184z m159 141 c35 -18 45 -39 37 -80 -8 -44 -44 -67 -106 -67 l-40 0 0 80 0
80 43 0 c23 0 53 -6 66 -13z"/>
<path d="M7510 8010 c0 -15 6 -19 28 -17 l27 2 3 -152 3 -153 -31 0 c-19 0
-30 -5 -30 -14 0 -20 9 -21 95 -18 57 3 75 7 75 18 0 9 -11 14 -30 14 l-30 0
0 155 0 155 30 0 c20 0 30 5 30 15 0 12 -16 15 -85 15 -78 0 -85 -2 -85 -20z"/>
</g>
</svg>
