<?xml version="1.0" encoding="UTF-8" standalone="no"?>
<svg
   xml:space="preserve"
   viewBox="0 0 5344.252 3779.5276"
   version="1.1"
   id="svg11978"
   sodipodi:docname="RPM LETRAS PRETO.svg"
   width="1414mm"
   height="1000mm"
   inkscape:version="1.2.2 (732a01da63, 2022-12-09)"
   xmlns:inkscape="http://www.inkscape.org/namespaces/inkscape"
   xmlns:sodipodi="http://sodipodi.sourceforge.net/DTD/sodipodi-0.dtd"
   xmlns="http://www.w3.org/2000/svg"
   xmlns:svg="http://www.w3.org/2000/svg"><defs
     id="defs11982" /><sodipodi:namedview
     id="namedview11980"
     pagecolor="#a0a0a0"
     bordercolor="#000000"
     borderopacity="0.25"
     inkscape:showpageshadow="2"
     inkscape:pageopacity="0"
     inkscape:pagecheckerboard="0"
     inkscape:deskcolor="#d1d1d1"
     showgrid="false"
     inkscape:zoom="0.14849242"
     inkscape:cx="2542.2173"
     inkscape:cy="1481.5571"
     inkscape:window-width="1366"
     inkscape:window-height="705"
     inkscape:window-x="-8"
     inkscape:window-y="-8"
     inkscape:window-maximized="1"
     inkscape:current-layer="svg11978"
     inkscape:document-units="mm" /><g
     id="g14018"
     style="fill:#000000;fill-opacity:1;stroke:#ffffff;stroke-opacity:1"><path
       d="m 319.98628,2250.7531 362.72957,1.1065 -17.45747,-522.643 -340.72042,-0.2074 z"
       style="fill:#000000;fill-opacity:1;fill-rule:nonzero;stroke:#ffffff;stroke-width:18.7288;stroke-dasharray:none;stroke-opacity:1"
       id="path12145" /><g
       id="g12555"
       style="fill:#000000;fill-opacity:1;stroke:#ffffff;stroke-opacity:1"><path
         d="m 2820.7281,2241.0915 c 513.9683,-202.2909 457.1702,-283.0307 725.8109,-784.1565 43.2272,-81.2355 91.4161,-159.6836 107.0027,-174.3677 93.4926,-87.9055 223.5516,-103.5852 295.9564,-35.6898 l 270.6349,591.6453 c 5.582,6.3714 93.2768,-87.1589 443.4086,-473.1271 110.0769,-121.3057 164.3873,-155.0543 252.7292,-156.9458 52.8542,-1.1449 79.8745,4.5297 104.1713,21.8519 61.3755,43.7039 58.7868,29.1692 95.1375,536.9906 17.9326,250.2771 32.5754,462.1763 32.5754,470.8872 l -376.3162,15.7792 -17.3395,-533.5062 -191.4075,192.6357 c -319.6059,352.2196 -309.6553,344.1558 -428.0918,346.0971 -132.8365,2.1901 -192.284,-130.7385 -247.7943,-259.4858 -55.5104,-128.7473 -34.7788,-401.4861 -132.0815,-298.9088 -97.3027,102.5774 -344.4291,541.2103 -415.9267,541.1001 z m -1593.3543,-0.224 c -57.1957,-15.5303 -113.9331,-49.9757 -173.1243,-105.178 C 897.95216,1990.8892 827.56983,1876.2038 667.09272,1728.3671 l 221.55602,-4.3804 c 240.27076,-4.7785 279.83046,-8.462 315.77666,-29.3682 51.6946,-30.1149 78.3914,-73.4206 75.3172,-122.1021 -1.8337,-29.2189 -8.7641,-40.5182 -37.9148,-61.8724 -33.5192,-24.5399 -58.7328,-26.5808 -413.82651,-33.5495 l -378.14997,-7.4665 -292.53161,-256.6982 570.798,4.8781 c 589.91719,4.9777 624.00269,7.9145 740.49759,62.5693 111.2095,52.1659 176.3334,140.1212 176.3334,238.0817 0,157.5929 -106.3825,298.9088 -292.9092,389.1539 -39.0473,18.9152 -70.9756,37.8801 -70.9756,42.2106 97.6184,115.9796 192.1896,162.471 295.9025,286.1163 -94.9218,25.2865 -211.6324,37.9298 -349.5926,4.9776 z m 428.8738,-29.7664 c 97.3487,-196.2196 177.8165,-362.7723 213.2234,-441.2203 l 19.308,-42.8079 489.8987,-0.1991 c 516.5955,-0.1991 540.1642,-2.6382 594.2588,-60.9267 13.1596,-14.1863 28.7732,-42.111 34.6788,-62.1212 10.2472,-34.545 9.8427,-37.8303 -8.2787,-66.9496 -34.7866,-55.8992 -77.5554,-59.9809 -637.9174,-60.9267 -399.0489,-0.6471 -523.0674,-4.4799 -509.5573,-15.8289 9.7889,-8.1634 75.6139,-65.5559 146.2389,-127.4781 l 128.441,-112.5948 399.5613,-4.2807 c 532.1012,-5.6746 627.2657,10.2539 752.7134,126.0842 81.8161,75.5112 103.9825,161.8737 71.5958,278.9982 -38.0226,137.6325 -156.567,247.0416 -353.26,326.1367 -84.9981,34.1467 -89.1239,34.4952 -451.3098,40.0204 l -365.5566,5.575 -65.3127,130.6637 -65.3126,130.6637 h -414.6625 z"
         style="fill:#000000;fill-opacity:1;fill-rule:nonzero;stroke:#ffffff;stroke-width:18.6025;stroke-dasharray:none;stroke-opacity:1"
         id="path12147"
         sodipodi:nodetypes="cccccccccccccczzscccccccccccccscccccccccccscccccccccccccc" /></g></g></svg>
